<svg width="400" height="400" fill="none" xmlns="http://www.w3.org/2000/svg"><g clip-path="url(#a)"><mask id="b" style="mask-type:luminance" maskUnits="userSpaceOnUse" x="0" y="0" width="400" height="401"><path d="M399.982.276H.018v399.73h399.964V.276Z" fill="#fff"/></mask><g mask="url(#b)"><path d="M184.609 409.495c-.438-.13-2.639-.658-4.891-1.175-2.252-.516-4.241-1.17-4.419-1.454-.178-.283-.872-7.575-1.542-16.203-.67-8.629-1.274-16.001-1.343-16.38-.1-.548-1.145-.906-5.034-1.727-6.436-1.359-15.265-3.887-21.387-6.125-2.704-.988-5.066-1.666-5.25-1.506-.184.159-4.423 5.999-9.422 12.979-4.999 6.979-9.317 12.892-9.596 13.14-.394.351-1.521.115-5.03-1.051-13.421-4.462-25.781-12.035-34.503-21.139l-2.087-2.179 6.92-14.97c3.804-8.233 6.929-15.091 6.943-15.239.014-.148-1.202-1.333-2.702-2.634-5.172-4.48-11.997-11.606-18.933-19.766l-1.323-1.557-14.857 6.635c-14.036 6.27-14.9 6.596-15.666 5.916-.445-.395-2.346-2.503-4.223-4.683-8.162-9.481-15.059-22.398-18.178-34.048l-.879-3.283 1.102-.737c.606-.406 6.628-4.59 13.383-9.3 9.673-6.743 12.265-8.741 12.207-9.411-.04-.466-.85-3.202-1.798-6.079-2.008-6.088-4.432-15.658-5.442-21.48l-.707-4.075-5.454-.859c-3-.473-10.345-1.384-16.322-2.026l-10.868-1.168-1.14-5.484C.837 216.041.05 208.653.002 202.116c-.054-7.168 2.2-21.972 3.523-23.135.216-.19 7.595-.913 16.4-1.607l16.007-1.262.603-3.084c1.664-8.51 5.685-23.211 7.763-28.386.282-.702-1.376-2.101-12.846-10.841l-13.17-10.035.409-1.638c.847-3.389 4.174-12.361 6.006-16.195 3.904-8.17 10.822-18.17 15.817-22.868l1.796-1.688 14.464 7.114c7.955 3.913 14.631 7.133 14.836 7.155.205.022 1.658-1.478 3.229-3.332 4.306-5.086 9.994-10.892 15.3-15.622 4.34-3.866 4.729-4.328 4.385-5.205-.208-.53-3.146-7.469-6.528-15.42l-6.15-14.46 1.736-1.773c8.51-8.696 21.324-16.717 32.938-20.617 7.383-2.479 5.51-3.874 16.161 12.037l9.238 13.8 3.635-1.275c7.366-2.584 19.275-5.683 25.926-6.748l1.706-.273.653-4.03c.36-2.217 1.204-9.705 1.874-16.64l1.222-12.61 1.49-.46c7.23-2.233 18.501-3.403 27.919-2.901 7.05.376 17.857 2.642 18.438 3.866.118.25.776 7.666 1.462 16.482.687 8.816 1.354 16.165 1.483 16.33.13.166 2.222.729 4.65 1.25 6.392 1.374 15.912 4.076 21.613 6.136 2.722.984 4.993 1.793 5.047 1.8.052.005 4.441-6.036 9.752-13.425 9.632-13.401 9.659-13.435 10.853-13.09 10.543 3.04 22.454 9.088 30.542 15.509 3.752 2.978 9.139 8.098 9.348 8.883.083.31-2.896 7.166-6.62 15.236s-6.785 14.822-6.803 15.006c-.018.183 1.196 1.397 2.697 2.698 3.945 3.418 11.39 10.993 15.124 15.387 1.773 2.086 3.654 4.272 4.18 4.857l.956 1.064 14.888-6.618 14.888-6.62 1.719 1.762c2.81 2.875 8.529 10.246 10.955 14.114 4.595 7.328 8.936 17.282 10.675 24.485l.574 2.374-13.487 9.46-13.488 9.459 1.815 5.523c2.066 6.285 4.406 15.414 5.649 22.029.465 2.478.923 4.609 1.018 4.735.096.126 7.39 1.098 16.21 2.162l16.038 1.933.737 2.602c1.277 4.51 2.635 15.188 2.739 21.545.143 8.633-1.994 23.348-3.582 24.674-.279.232-7.377.946-15.775 1.588-8.397.642-15.571 1.223-15.941 1.291-.532.097-.875 1.166-1.653 5.159-1.288 6.602-3.701 15.657-5.847 21.932-.947 2.773-1.594 5.186-1.437 5.365.157.179 5.868 4.562 12.689 9.741 6.822 5.18 12.601 9.656 12.844 9.947.343.413.12 1.567-.998 5.168-2.61 8.411-6.781 17.388-10.996 23.672-3.728 5.557-10.733 13.565-11.767 13.453-.261-.028-6.858-3.196-14.659-7.041-7.801-3.845-14.319-7.004-14.485-7.022-.165-.019-1.956 1.896-3.98 4.253-3.956 4.61-10.18 10.933-15.797 16.05l-3.497 3.184 6.531 15.304 6.529 15.303-1.708 1.761c-2.789 2.871-9.932 8.706-13.687 11.178-7.116 4.684-16.817 9.101-23.781 10.827l-2.308.572-8.756-13.095c-4.816-7.202-9.045-13.426-9.4-13.828-.592-.676-1.041-.601-5.635.939-7.535 2.524-18.275 5.256-24.32 6.186-1.546.238-1.752.413-2.115 1.795-.22.843-1.06 8.332-1.865 16.642l-1.465 15.109-1.856.616c-2.909.966-12.082 2.408-17.517 2.754-4.493.285-16.979-.388-19.154-1.033Zm18.25-91.403c24.925-.668 47.908-9.332 66.754-25.166 26.387-22.168 41.017-54.877 40.182-89.836-.5-20.956-6.72-41.433-18.045-59.405-3.101-4.92-10.303-13.986-14.375-18.094-18.405-18.571-41.205-29.664-66.51-32.363-29.502-3.146-57.553 5.406-80.401 24.51-18.756 15.683-31.076 35.725-37.217 60.546-1.918 7.754-3.324 21.221-3.04 29.108.664 18.404 4.813 34.666 12.796 50.152 3.897 7.562 6.901 12.219 12.112 18.778 17.119 21.549 39.996 35.192 67.804 40.435 3.749.706 15.079 1.465 19.94 1.335Z" fill="#fff" fill-opacity=".04"/></g></g><defs><clipPath id="a"><path fill="#fff" d="M0 0h400v400H0z"/></clipPath></defs></svg>