<svg width="31" height="30" fill="none" xmlns="http://www.w3.org/2000/svg"><path fill-rule="evenodd" clip-rule="evenodd" d="M3.958 15C3.958 8.35 9.35 2.958 16 2.958c6.65 0 12.042 5.392 12.042 12.042 0 6.65-5.392 12.042-12.042 12.042a11.98 11.98 0 0 1-6.435-1.862 1.417 1.417 0 0 0-1.163-.16l-4.079 1.217 1.536-3.594a1.416 1.416 0 0 0-.099-1.303A11.98 11.98 0 0 1 3.958 15ZM16 .125C7.785.125 1.125 6.785 1.125 15c0 2.604.67 5.055 1.848 7.186L.531 27.902a1.417 1.417 0 0 0 1.707 1.914l6.375-1.902A14.813 14.813 0 0 0 16 29.875c8.215 0 14.875-6.66 14.875-14.875S24.215.125 16 .125Zm3.248 17.967-1.862 1.311a13.228 13.228 0 0 1-2.803-2.157 14.452 14.452 0 0 1-2.3-2.995l1.183-1.004a1.417 1.417 0 0 0 .334-1.746l-1.508-2.833a1.417 1.417 0 0 0-2.182-.402l-.447.39c-1.075.938-1.71 2.48-1.184 4.04a17.068 17.068 0 0 0 4.1 6.554c2.57 2.569 5.18 3.58 6.706 3.974 1.23.316 2.393-.108 3.213-.776l.838-.683a1.417 1.417 0 0 0-.17-2.315l-2.377-1.417a1.417 1.417 0 0 0-1.541.059Z" fill="#fff" fill-opacity=".5"/></svg>