<svg width="31" height="19" fill="none" xmlns="http://www.w3.org/2000/svg"><path d="M30.224 1.743c.212-.716 0-1.243-1.02-1.243H25.83c-.86 0-1.255.453-1.467.957 0 0-1.719 4.188-4.148 6.903-.785.785-1.146 1.037-1.575 1.037-.212 0-.539-.252-.539-.968V1.743c0-.86-.24-1.243-.951-1.243h-5.305c-.539 0-.86.401-.86.773 0 .814 1.215 1.003 1.341 3.295V9.54c0 1.088-.195 1.289-.624 1.289-1.146 0-3.93-4.206-5.58-9.018C5.788.878 5.461.5 4.596.5H1.223C.26.5.066.953.066 1.457c0 .894 1.145 5.334 5.333 11.2 2.79 4.005 6.72 6.176 10.296 6.176 2.148 0 2.412-.48 2.412-1.312 0-3.827-.195-4.188.882-4.188.498 0 1.358.252 3.363 2.183 2.292 2.292 2.67 3.317 3.953 3.317h3.375c.962 0 1.45-.48 1.168-1.432-.641-2-4.978-6.113-5.173-6.388-.498-.642-.355-.928 0-1.501.006-.006 4.125-5.804 4.549-7.769Z" fill="#fff" fill-opacity=".5"/></svg>