<svg width="30" height="31" xmlns="http://www.w3.org/2000/svg"><path d="M15.007 7.442a7.682 7.682 0 0 0-7.695 7.694 7.682 7.682 0 0 0 7.695 7.694 7.682 7.682 0 0 0 7.694-7.694 7.682 7.682 0 0 0-7.694-7.694Zm0 12.696a5.011 5.011 0 0 1-5.003-5.002 5.007 5.007 0 0 1 5.003-5.002 5.007 5.007 0 0 1 5.002 5.002 5.011 5.011 0 0 1-5.002 5.002Zm9.803-13.01a1.79 1.79 0 0 1-1.794 1.794 1.795 1.795 0 1 1 1.795-1.795Zm5.096 1.82c-.114-2.403-.663-4.533-2.424-6.287C25.728.906 23.598.357 21.194.237 18.717.096 11.29.096 8.812.237 6.415.35 4.286.9 2.525 2.654.763 4.408.22 6.538.1 8.942c-.14 2.478-.14 9.904 0 12.382.114 2.404.663 4.533 2.425 6.288 1.76 1.754 3.883 2.303 6.287 2.424 2.478.14 9.905.14 12.382 0 2.404-.114 4.534-.663 6.288-2.424 1.755-1.755 2.304-3.884 2.424-6.288.14-2.478.14-9.898 0-12.375Zm-3.2 15.034a5.064 5.064 0 0 1-2.853 2.853c-1.976.783-6.663.602-8.846.602s-6.878.175-8.846-.602a5.064 5.064 0 0 1-2.853-2.853c-.783-1.975-.603-6.663-.603-8.846s-.174-6.877.603-8.846a5.064 5.064 0 0 1 2.853-2.853c1.975-.783 6.663-.602 8.846-.602s6.877-.174 8.846.603a5.064 5.064 0 0 1 2.852 2.852c.784 1.976.603 6.663.603 8.846s.18 6.877-.603 8.846Z" fill="#fff"/></svg>