<svg width="30" height="18" fill="none" xmlns="http://www.w3.org/2000/svg"><path d="M8.461.445c4.673 0 8.46 3.815 8.46 8.52 0 4.704-3.787 8.518-8.46 8.518C3.788 17.483 0 13.67 0 8.964 0 4.26 3.788.445 8.461.445Zm13.512.5c2.336 0 4.23 3.59 4.23 8.02 0 4.428-1.893 8.02-4.23 8.02-2.336 0-4.23-3.592-4.23-8.02 0-4.43 1.893-8.02 4.23-8.02Zm6.54.835c.82 0 1.487 3.216 1.487 7.184 0 3.967-.666 7.185-1.488 7.185s-1.488-3.217-1.488-7.185c0-3.967.667-7.184 1.488-7.184Z" fill="#fff" fill-opacity=".5"/></svg>