<svg width="400" height="400" viewBox="0 0 400 400" fill="none" xmlns="http://www.w3.org/2000/svg">
<g clip-path="url(#clip0_22_13)">
<mask id="mask0_22_13" style="mask-type:luminance" maskUnits="userSpaceOnUse" x="0" y="0" width="400" height="401">
<path d="M399.982 0.276062H0.0180359V400.006H399.982V0.276062Z" fill="white"/>
</mask>
<g mask="url(#mask0_22_13)">
<path d="M184.609 409.495C184.171 409.365 181.97 408.837 179.718 408.32C177.466 407.804 175.477 407.15 175.299 406.866C175.121 406.583 174.427 399.291 173.757 390.663C173.087 382.034 172.483 374.662 172.414 374.283C172.314 373.735 171.269 373.377 167.38 372.556C160.944 371.197 152.115 368.669 145.993 366.431C143.289 365.443 140.927 364.765 140.743 364.925C140.559 365.084 136.32 370.924 131.321 377.904C126.322 384.883 122.004 390.796 121.725 391.044C121.331 391.395 120.204 391.159 116.695 389.993C103.274 385.531 90.914 377.958 82.1923 368.854L80.1053 366.675L87.0241 351.705C90.8288 343.472 93.9537 336.614 93.9679 336.466C93.9821 336.318 92.7662 335.133 91.2656 333.832C86.0938 329.352 79.2694 322.226 72.3335 314.066L71.0097 312.509L56.1535 319.144C42.1174 325.414 41.2526 325.74 40.4872 325.06C40.0416 324.665 38.1413 322.557 36.2644 320.377C28.1018 310.896 21.2051 297.979 18.0863 286.329L17.2073 283.046L18.3093 282.309C18.9153 281.903 24.9375 277.719 31.692 273.009C41.3647 266.266 43.9572 264.268 43.8992 263.598C43.8587 263.132 43.0494 260.396 42.1007 257.519C40.0932 251.431 37.6688 241.861 36.6591 236.039L35.9523 231.964L30.4977 231.105C27.4977 230.632 20.1528 229.721 14.1757 229.079L3.30849 227.911L2.16744 222.427C0.838636 216.041 0.0512543 208.653 0.00257918 202.116C-0.0508075 194.948 2.20384 180.144 3.52613 178.981C3.74165 178.791 11.1214 178.068 19.9255 177.374L35.933 176.112L36.5362 173.028C38.2003 164.518 42.2209 149.817 44.2992 144.642C44.5813 143.94 42.9234 142.541 31.4529 133.801L18.2826 123.766L18.692 122.128C19.539 118.739 22.8661 109.767 24.6984 105.933C28.602 97.7636 35.5196 87.7623 40.5153 83.065L42.3108 81.3767L56.7747 88.4909C64.7298 92.4042 71.4062 95.6237 71.611 95.6457C71.8159 95.6677 73.2688 94.1681 74.8398 92.3135C79.1463 87.2282 84.8337 81.4222 90.1407 76.6924C94.4798 72.8255 94.869 72.3635 94.5249 71.4867C94.317 70.9575 91.3791 64.0182 87.997 56.0662L81.8475 41.6077L83.5831 39.8339C92.0923 31.1382 104.907 23.1169 116.521 19.2173C123.904 16.7385 122.031 15.3433 132.682 31.2544L141.92 45.0536L145.555 43.7786C152.921 41.1953 164.83 38.0959 171.481 37.0313L173.187 36.7584L173.84 32.728C174.2 30.5113 175.044 23.0229 175.714 16.0873L176.936 3.4772L178.426 3.01735C185.656 0.785448 196.927 -0.385403 206.345 0.117013C213.395 0.493178 224.202 2.75891 224.783 3.98303C224.901 4.23243 225.559 11.6494 226.245 20.4652C226.932 29.2811 227.599 36.6296 227.728 36.7954C227.858 36.9612 229.95 37.5236 232.378 38.0453C238.77 39.4186 248.29 42.1213 253.991 44.1812C256.713 45.1649 258.984 45.9744 259.038 45.9801C259.09 45.9858 263.479 39.9447 268.79 32.5555C278.422 19.1547 278.449 19.1214 279.643 19.4652C290.186 22.5052 302.097 28.5537 310.185 34.9749C313.937 37.9534 319.324 43.0726 319.533 43.8582C319.616 44.1684 316.637 51.0244 312.913 59.0941C309.189 67.1637 306.128 73.9162 306.11 74.0996C306.092 74.283 307.306 75.4972 308.807 76.7978C312.752 80.2158 320.197 87.7913 323.931 92.185C325.704 94.2711 327.585 96.4568 328.111 97.0424L329.067 98.1061L343.955 91.4875L358.843 84.8689L360.562 86.6296C363.372 89.5053 369.091 96.8759 371.517 100.744C376.112 108.072 380.453 118.026 382.192 125.229L382.766 127.603L369.279 137.063L355.791 146.522L357.606 152.045C359.672 158.33 362.012 167.459 363.255 174.074C363.72 176.552 364.178 178.683 364.273 178.809C364.369 178.935 371.663 179.907 380.483 180.971L396.521 182.904L397.258 185.506C398.535 190.016 399.893 200.694 399.997 207.051C400.14 215.684 398.003 230.399 396.415 231.725C396.136 231.957 389.038 232.671 380.64 233.313C372.243 233.955 365.069 234.536 364.699 234.604C364.167 234.701 363.824 235.77 363.046 239.763C361.758 246.365 359.345 255.42 357.199 261.695C356.252 264.468 355.605 266.881 355.762 267.06C355.919 267.239 361.63 271.622 368.451 276.801C375.273 281.981 381.052 286.457 381.295 286.748C381.638 287.161 381.415 288.315 380.297 291.916C377.687 300.327 373.516 309.304 369.301 315.588C365.573 321.145 358.568 329.153 357.534 329.041C357.273 329.013 350.676 325.845 342.875 322C335.074 318.155 328.556 314.996 328.39 314.978C328.225 314.959 326.434 316.874 324.41 319.231C320.454 323.841 314.23 330.164 308.613 335.281L305.116 338.465L311.647 353.769L318.176 369.072L316.468 370.833C313.679 373.704 306.536 379.539 302.781 382.011C295.665 386.695 285.964 391.112 279 392.838L276.692 393.41L267.936 380.315C263.12 373.113 258.891 366.889 258.536 366.487C257.944 365.811 257.495 365.886 252.901 367.426C245.366 369.95 234.626 372.682 228.581 373.612C227.035 373.85 226.829 374.025 226.466 375.407C226.246 376.25 225.406 383.739 224.601 392.049L223.136 407.158L221.28 407.774C218.371 408.74 209.198 410.182 203.763 410.528C199.27 410.813 186.784 410.14 184.609 409.495ZM202.859 318.092C227.784 317.424 250.767 308.76 269.613 292.926C296 270.758 310.63 238.049 309.795 203.09C309.295 182.134 303.075 161.657 291.75 143.685C288.649 138.765 281.447 129.699 277.375 125.591C258.97 107.02 236.17 95.9266 210.865 93.2276C181.363 90.0821 153.312 98.6336 130.464 117.738C111.708 133.421 99.3877 153.463 93.2472 178.284C91.329 186.038 89.9227 199.505 90.2067 207.392C90.8714 225.796 95.0201 242.058 103.003 257.544C106.9 265.106 109.904 269.763 115.115 276.322C132.234 297.871 155.111 311.514 182.919 316.757C186.668 317.463 197.998 318.222 202.859 318.092Z" fill="white" fill-opacity="0.04"/>
</g>
</g>
<defs>
<clipPath id="clip0_22_13">
<rect width="400" height="400" fill="white"/>
</clipPath>
</defs>
</svg>
