<svg width="30" height="31" viewBox="0 0 30 31" fill="none" xmlns="http://www.w3.org/2000/svg">
<path d="M15.0067 7.44197C10.7478 7.44197 7.31249 10.8772 7.31249 15.1362C7.31249 19.3951 10.7478 22.8304 15.0067 22.8304C19.2656 22.8304 22.7009 19.3951 22.7009 15.1362C22.7009 10.8772 19.2656 7.44197 15.0067 7.44197ZM15.0067 20.1384C12.2545 20.1384 10.0044 17.8951 10.0044 15.1362C10.0044 12.3772 12.2478 10.1339 15.0067 10.1339C17.7656 10.1339 20.0089 12.3772 20.0089 15.1362C20.0089 17.8951 17.7589 20.1384 15.0067 20.1384ZM24.8103 7.12723C24.8103 8.125 24.0067 8.92188 23.0156 8.92188C22.0178 8.92188 21.221 8.11831 21.221 7.12723C21.221 6.13616 22.0245 5.33259 23.0156 5.33259C24.0067 5.33259 24.8103 6.13616 24.8103 7.12723ZM29.9062 8.94866C29.7924 6.54465 29.2433 4.41518 27.4821 2.66072C25.7277 0.906253 23.5982 0.357146 21.1942 0.23661C18.7165 0.0959854 11.2902 0.0959854 8.81249 0.23661C6.41517 0.35045 4.2857 0.899557 2.52454 2.65402C0.76338 4.40849 0.220969 6.53795 0.100433 8.94197C-0.0401916 11.4196 -0.0401916 18.846 0.100433 21.3237C0.214273 23.7277 0.76338 25.8571 2.52454 27.6116C4.2857 29.3661 6.40847 29.9152 8.81249 30.0357C11.2902 30.1763 18.7165 30.1763 21.1942 30.0357C23.5982 29.9219 25.7277 29.3728 27.4821 27.6116C29.2366 25.8571 29.7857 23.7277 29.9062 21.3237C30.0469 18.846 30.0469 11.4263 29.9062 8.94866ZM26.7053 23.9821C26.183 25.2946 25.1719 26.3058 23.8527 26.8348C21.8772 27.6183 17.1897 27.4375 15.0067 27.4375C12.8236 27.4375 8.12945 27.6116 6.1607 26.8348C4.8482 26.3125 3.83704 25.3013 3.30802 23.9821C2.52454 22.0067 2.70534 17.3192 2.70534 15.1362C2.70534 12.9531 2.53124 8.25893 3.30802 6.29018C3.83034 4.97768 4.8415 3.96652 6.1607 3.4375C8.13615 2.65402 12.8236 2.83482 15.0067 2.83482C17.1897 2.83482 21.8839 2.66072 23.8527 3.4375C25.1652 3.95982 26.1763 4.97098 26.7053 6.29018C27.4888 8.26563 27.308 12.9531 27.308 15.1362C27.308 17.3192 27.4888 22.0134 26.7053 23.9821Z" fill="white" fill-opacity="0.5"/>
</svg>
