<svg width="31" height="26" viewBox="0 0 31 26" fill="none" xmlns="http://www.w3.org/2000/svg">
<path d="M28.2016 0.329477C28.2016 0.329477 31.0346 -0.77521 30.7985 1.90761C30.7198 3.01231 30.0116 6.87871 29.4607 11.0608L27.572 23.4491C27.572 23.4491 27.4147 25.2639 25.9981 25.5796C24.5815 25.8952 22.4568 24.4749 22.0633 24.1592C21.7485 23.9225 16.1612 20.3717 14.1938 18.6358C13.6429 18.1623 13.0133 17.2155 14.2724 16.1108L22.5355 8.22016C23.4799 7.27327 24.4242 5.06389 20.4894 7.74671L9.47205 15.2428C9.47205 15.2428 8.21293 16.0319 5.8521 15.3217L0.736869 13.7436C0.736869 13.7436 -1.15183 12.56 2.07469 11.3764C9.94426 7.66774 19.6238 3.88023 28.2016 0.329477Z" fill="white" fill-opacity="0.5"/>
</svg>
