<svg width="30" height="18" viewBox="0 0 30 18" fill="none" xmlns="http://www.w3.org/2000/svg">
<path d="M8.46104 0.445312C13.134 0.445312 16.9218 4.2596 16.9218 8.96442C16.9218 13.6693 13.1337 17.4832 8.46104 17.4832C3.78841 17.4832 0 13.6693 0 8.96442C0 4.2596 3.78812 0.445312 8.46104 0.445312ZM21.9727 0.94434C24.3092 0.94434 26.2033 4.53469 26.2033 8.96442H26.2035C26.2035 13.393 24.3095 16.9845 21.973 16.9845C19.6366 16.9845 17.7425 13.393 17.7425 8.96442C17.7425 4.53584 19.6363 0.94434 21.9727 0.94434ZM28.5121 1.77969C29.3337 1.77969 30 4.99635 30 8.96442C30 12.9313 29.334 16.1492 28.5121 16.1492C27.6903 16.1492 27.0245 12.9322 27.0245 8.96442C27.0245 4.99664 27.6906 1.77969 28.5121 1.77969Z" fill="white" fill-opacity="0.5"/>
</svg>
