<svg width="31" height="30" viewBox="0 0 31 30" fill="none" xmlns="http://www.w3.org/2000/svg">
<path fill-rule="evenodd" clip-rule="evenodd" d="M3.95835 15C3.95835 8.34957 9.34959 2.95833 16 2.95833C22.6504 2.95833 28.0417 8.34957 28.0417 15C28.0417 21.6504 22.6504 27.0417 16 27.0417C13.631 27.0417 11.426 26.3591 9.56546 25.1803C9.21922 24.961 8.79494 24.9024 8.40218 25.0195L4.32339 26.2369L5.85911 22.6433C6.04063 22.2186 6.00369 21.7321 5.76014 21.3397C4.61807 19.4993 3.95835 17.3289 3.95835 15ZM16 0.125C7.78478 0.125 1.12502 6.78476 1.12502 15C1.12502 17.604 1.7953 20.0551 2.97325 22.1863L0.530658 27.9016C0.314727 28.4069 0.410439 28.9914 0.776237 29.4014C1.14203 29.8115 1.71195 29.973 2.23848 29.8158L8.61266 27.9136C10.7901 29.1617 13.3136 29.875 16 29.875C24.2152 29.875 30.875 23.2152 30.875 15C30.875 6.78476 24.2152 0.125 16 0.125ZM19.2477 18.0917L17.3859 19.4031C16.514 18.9065 15.5499 18.2131 14.5829 17.2461C13.5776 16.2409 12.8324 15.203 12.2828 14.251L13.466 13.2467C13.9737 12.8158 14.1127 12.0892 13.7999 11.5012L12.2923 8.6679C12.0893 8.28637 11.7233 8.01838 11.2983 7.9401C10.8733 7.86183 10.4358 7.98183 10.1102 8.266L9.66319 8.6561C8.58832 9.5942 7.95262 11.1358 8.47949 12.6966C9.02571 14.3148 10.1914 16.8615 12.5795 19.2496C15.1487 21.8188 17.7585 22.8306 19.2847 23.2236C20.5143 23.5401 21.678 23.1158 22.498 22.4477L23.3359 21.7649C23.6943 21.4729 23.8877 21.0242 23.854 20.5631C23.8201 20.102 23.5634 19.6863 23.1662 19.4496L20.7886 18.0329C20.3084 17.7469 19.7049 17.7699 19.2477 18.0917Z" fill="white" fill-opacity="0.5"/>
</svg>
