<svg width="31" height="19" viewBox="0 0 31 19" fill="none" xmlns="http://www.w3.org/2000/svg">
<path d="M30.224 1.74323C30.4359 1.02708 30.224 0.5 29.2042 0.5H25.8297C24.9703 0.5 24.575 0.952604 24.363 1.45677C24.363 1.45677 22.6443 5.64479 20.2151 8.36041C19.4302 9.14531 19.0693 9.39739 18.6396 9.39739C18.4276 9.39739 18.101 9.14531 18.101 8.42916V1.74323C18.101 0.883854 17.8604 0.5 17.15 0.5H11.8448C11.3062 0.5 10.9854 0.901042 10.9854 1.27344C10.9854 2.08698 12.2 2.27604 12.326 4.56771V9.54062C12.326 10.6292 12.1312 10.8297 11.7016 10.8297C10.5557 10.8297 7.77134 6.62448 6.12134 1.81198C5.78905 0.878125 5.46249 0.5 4.59738 0.5H1.2229C0.260404 0.5 0.0656128 0.952604 0.0656128 1.45677C0.0656128 2.35052 1.21145 6.79062 5.39947 12.6573C8.18957 16.662 12.1198 18.8333 15.6948 18.8333C17.8432 18.8333 18.1068 18.3521 18.1068 17.5214C18.1068 13.6943 17.912 13.3333 18.9891 13.3333C19.4875 13.3333 20.3469 13.5854 22.3521 15.5161C24.6437 17.8078 25.0219 18.8333 26.3052 18.8333H29.6797C30.6422 18.8333 31.1292 18.3521 30.8484 17.401C30.2068 15.4016 25.8698 11.288 25.675 11.013C25.1766 10.3714 25.3198 10.0849 25.675 9.51198C25.6807 9.50625 29.8 3.70833 30.224 1.74323Z" fill="white" fill-opacity="0.5"/>
</svg>
